# xmcd
#
# Track frame offsets: 
#        150
#        19602
#        37769
#        52042
#        70916
#
# Disc length: 1129 seconds
#
# Revision: 0
# Processed by: cddbd v1.5.2PL0 Copyright (c) Steve Scherf et al.
# Submitted via: ExactAudioCopy v1.0b3
#
DISCID=37046705
DTITLE=Bad Sector and Tommaso Lisa - Reset Rebis Periferiche 
DYEAR=2005
DGENRE=Ambient
TTITLE0=Untitled
TTITLE1=Untitled
TTITLE2=Untitled
TTITLE3=Untitled
TTITLE4=Untitled
EXTD=
EXTT0=
EXTT1=
EXTT2=
EXTT3=
EXTT4=
PLAYORDER=
